<svg xmlns="http://www.w3.org/2000/svg" viewBox="0 0 1000 700" preserveAspectRatio="none">
  <defs>
    <linearGradient id="base" x1="0" y1="0" x2="1" y2="1"><stop stop-color="#1d100a"/><stop offset=".32" stop-color="#3a2113"/><stop offset=".68" stop-color="#2b170e"/><stop offset="1" stop-color="#140a06"/></linearGradient>
    <filter id="grain" x="-8%" y="-8%" width="116%" height="116%"><feTurbulence type="fractalNoise" baseFrequency=".006 .11" numOctaves="3" seed="27" result="n"/><feColorMatrix in="n" type="matrix" values=".23 0 0 0 .24 0 .14 0 0 .12 0 0 .07 0 .08 0 0 0 .32 0" result="t"/><feBlend in="SourceGraphic" in2="t" mode="multiply"/></filter>
    <radialGradient id="knot"><stop stop-color="#0e0604"/><stop offset=".25" stop-color="#4b2816"/><stop offset=".52" stop-color="#160a06"/><stop offset=".72" stop-color="#6b3a1d"/><stop offset="1" stop-color="#24120b" stop-opacity="0"/></radialGradient>
  </defs>
  <rect width="1000" height="700" fill="url(#base)"/>
  <g filter="url(#grain)"><rect width="1000" height="700" fill="url(#base)"/><g fill="none" stroke-linecap="round">
    <path d="M-20 76c161-34 282 27 432 2 148-25 275-16 438 14 59 11 109 10 170-4" stroke="#a86634" stroke-opacity=".19" stroke-width="8"/>
    <path d="M-20 94c161-29 282 31 432 8 149-23 276-11 439 19 58 11 108 9 169-8" stroke="#130805" stroke-opacity=".5" stroke-width="3"/>
    <path d="M-20 235c161-34 282 27 432 2 148-25 275-16 438 14 59 11 109 10 170-4" stroke="#8f4f27" stroke-opacity=".19" stroke-width="8"/>
    <path d="M-20 253c161-29 282 31 432 8 149-23 276-11 439 19 58 11 108 9 169-8" stroke="#120805" stroke-opacity=".48" stroke-width="3"/>
    <path d="M-20 445c161-34 282 27 432 2 148-25 275-16 438 14 59 11 109 10 170-4" stroke="#a86634" stroke-opacity=".17" stroke-width="8"/>
    <path d="M-20 463c161-29 282 31 432 8 149-23 276-11 439 19 58 11 108 9 169-8" stroke="#130805" stroke-opacity=".5" stroke-width="3"/>
  </g></g>
  <g opacity=".48"><ellipse cx="194" cy="154" rx="78" ry="40" fill="url(#knot)" transform="rotate(-8 194 154)"/><ellipse cx="780" cy="330" rx="92" ry="46" fill="url(#knot)" transform="rotate(8 780 330)"/><ellipse cx="393" cy="586" rx="76" ry="38" fill="url(#knot)" transform="rotate(-5 393 586)"/></g>
  <rect x="10" y="10" width="980" height="680" fill="none" stroke="#0d0503" stroke-width="20"/>
  <rect x="22" y="22" width="956" height="656" fill="none" stroke="#a87331" stroke-opacity=".38" stroke-width="3"/>
</svg>