<svg xmlns="http://www.w3.org/2000/svg" viewBox="0 0 160 190"><defs><linearGradient id="g" x1="0" y1="0" x2="0" y2="1"><stop stop-color="#f2d778"/><stop offset="1" stop-color="#a87425"/></linearGradient></defs><path d="M80 8l54 20v64c0 38-21 69-54 88C47 161 26 130 26 92V28L80 8z" fill="#234522" stroke="#2b190d" stroke-width="8"/><path d="M80 14l47 17v59c0 32-17 58-47 76-30-18-47-44-47-76V31l47-17z" fill="none" stroke="#b98c3b" stroke-width="3"/><g fill="none" stroke="url(#g)" stroke-width="5" stroke-linecap="round" stroke-linejoin="round"><path d="M79 138V75M79 78L55 60M79 83l24-23M69 68L50 42M90 69l21-26M65 84L43 73M94 84l23-11M79 97L56 91M79 97l24-6M72 111L55 122M86 111l17 11M79 73V42"/><path d="M61 137c11-10 28-10 38 0M68 145h22"/></g><g fill="#d7b85c"><circle cx="50" cy="42" r="5"/><circle cx="111" cy="43" r="5"/><circle cx="43" cy="73" r="5"/><circle cx="117" cy="73" r="5"/><circle cx="56" cy="91" r="5"/><circle cx="103" cy="91" r="5"/></g></svg>